
        <svg xmlns="http://www.w3.org/2000/svg" xmlns:xlink="http://www.w3.org/1999/xlink" version="1.1" width="3300" height="1118.2288847264483" viewBox="0 0 3300 1118.2288847264483">
			
			<g transform="scale(15) translate(10, 10)">
				<defs id="SvgjsDefs1271"/><g id="SvgjsG1272" featureKey="symbolFeature-0" transform="matrix(0.6428727704279815,0,0,0.6428727704279815,67.85604205805974,-26.368711325984997)" fill="#000"><g xmlns="http://www.w3.org/2000/svg"><path d="M35.318,41.017H6.446l6.451,4.253l23.108-2.02c0.143-0.013,0.269,0.089,0.288,0.23c0.02,0.142-0.076,0.272-0.216,0.298   l-20.146,3.71l4.98,3.646l18.053-4.135C37.456,45.225,36.24,43.232,35.318,41.017z"/><path d="M29.096,57.131l0.118,0.085c1.708,1.178,3.626,1.765,5.772,1.766c3.687,0.002,8.068-1.763,13.115-5.323   c-1.408-0.632-2.72-1.334-3.93-2.124L29.096,57.131z"/><path d="M40.172,48.318L23.1,52.74l4.011,2.944l15.573-5.187C41.782,49.816,40.944,49.092,40.172,48.318z"/><path d="M63.996,43.25l23.108,2.02l6.451-4.253H64.682c-0.923,2.215-2.139,4.208-3.645,5.982l18.053,4.135l4.981-3.646   l-20.147-3.71c-0.14-0.026-0.236-0.157-0.216-0.298C63.727,43.338,63.853,43.237,63.996,43.25z"/><path d="M51.899,53.66c5.047,3.561,9.428,5.326,13.115,5.323c2.146-0.001,4.064-0.589,5.772-1.766l0.118-0.085l-15.075-5.595   C54.619,52.326,53.306,53.028,51.899,53.66z"/><path d="M57.316,50.496l15.573,5.187L76.9,52.74l-17.072-4.422C59.056,49.092,58.218,49.816,57.316,50.496z"/></g></g>
			</g>
		</svg>
	