
        <svg xmlns="http://www.w3.org/2000/svg" xmlns:xlink="http://www.w3.org/1999/xlink" version="1.1" width="3300" height="1118.2288847264483" viewBox="0 0 3300 1118.2288847264483">
			
			<g transform="scale(15) translate(10, 10)">
				<defs id="SvgjsDefs1271"/><g id="SvgjsG1272" featureKey="symbolFeature-0" transform="matrix(0.6428727704279815,0,0,0.6428727704279815,67.85604205805974,-26.368711325984997)" fill="#fff"><g xmlns="http://www.w3.org/2000/svg"><path d="M35.318,41.017H6.446l6.451,4.253l23.108-2.02c0.143-0.013,0.269,0.089,0.288,0.23c0.02,0.142-0.076,0.272-0.216,0.298   l-20.146,3.71l4.98,3.646l18.053-4.135C37.456,45.225,36.24,43.232,35.318,41.017z"/><path d="M29.096,57.131l0.118,0.085c1.708,1.178,3.626,1.765,5.772,1.766c3.687,0.002,8.068-1.763,13.115-5.323   c-1.408-0.632-2.72-1.334-3.93-2.124L29.096,57.131z"/><path d="M40.172,48.318L23.1,52.74l4.011,2.944l15.573-5.187C41.782,49.816,40.944,49.092,40.172,48.318z"/><path d="M63.996,43.25l23.108,2.02l6.451-4.253H64.682c-0.923,2.215-2.139,4.208-3.645,5.982l18.053,4.135l4.981-3.646   l-20.147-3.71c-0.14-0.026-0.236-0.157-0.216-0.298C63.727,43.338,63.853,43.237,63.996,43.25z"/><path d="M51.899,53.66c5.047,3.561,9.428,5.326,13.115,5.323c2.146-0.001,4.064-0.589,5.772-1.766l0.118-0.085l-15.075-5.595   C54.619,52.326,53.306,53.028,51.899,53.66z"/><path d="M57.316,50.496l15.573,5.187L76.9,52.74l-17.072-4.422C59.056,49.092,58.218,49.816,57.316,50.496z"/></g></g><g id="SvgjsG1273" featureKey="nameFeature-0" transform="matrix(0.786213008228688,0,0,0.786213008228688,-0.9749039502536964,22.817034073329214)" fill="#fff"><path d="M8.2 28.4 l0 -4 l6.16 0 l0 8.88 c0 4.48 -2.24 7.04 -6.56 7.04 s-6.56 -2.56 -6.56 -7.04 l0 -14.56 c0 -4.48 2.24 -7.04 6.56 -7.04 s6.56 2.56 6.56 7.04 l0 2.72 l-4.16 0 l0 -3 c0 -2 -0.88 -2.76 -2.28 -2.76 s-2.28 0.76 -2.28 2.76 l0 15.12 c0 2 0.88 2.72 2.28 2.72 s2.28 -0.72 2.28 -2.72 l0 -5.16 l-2 0 z M21.328 12 l4.4 0 l0 21.6 c0 2 0.88 2.72 2.28 2.72 s2.28 -0.72 2.28 -2.72 l0 -21.6 l4.16 0 l0 21.32 c0 4.48 -2.24 7.04 -6.56 7.04 s-6.56 -2.56 -6.56 -7.04 l0 -21.32 z M55.456 40 l-4.48 0 c-0.24 -0.72 -0.4 -1.16 -0.4 -3.44 l0 -4.4 c0 -2.6 -0.88 -3.56 -2.88 -3.56 l-1.52 0 l0 11.4 l-4.4 0 l0 -28 l6.64 0 c4.56 0 6.52 2.12 6.52 6.44 l0 2.2 c0 2.88 -0.92 4.72 -2.88 5.64 l0 0.08 c2.2 0.92 2.92 3 2.92 5.92 l0 4.32 c0 1.36 0.04 2.36 0.48 3.4 z M48.296 16 l-2.12 0 l0 8.6 l1.72 0 c1.64 0 2.64 -0.72 2.64 -2.96 l0 -2.76 c0 -2 -0.68 -2.88 -2.24 -2.88 z M68.664 12 c4.4 0 6.56 2.44 6.56 6.92 l0 3.64 c0 4.48 -2.16 6.92 -6.56 6.92 l-2.08 0 l0 10.52 l-4.4 0 l0 -28 l6.48 0 z M68.664 16 l-2.08 0 l0 9.48 l2.08 0 c1.4 0 2.16 -0.64 2.16 -2.64 l0 -4.2 c0 -2 -0.76 -2.64 -2.16 -2.64 z M95.272 40 l-4.48 0 c-0.24 -0.72 -0.4 -1.16 -0.4 -3.44 l0 -4.4 c0 -2.6 -0.88 -3.56 -2.88 -3.56 l-1.52 0 l0 11.4 l-4.4 0 l0 -28 l6.64 0 c4.56 0 6.52 2.12 6.52 6.44 l0 2.2 c0 2.88 -0.92 4.72 -2.88 5.64 l0 0.08 c2.2 0.92 2.92 3 2.92 5.92 l0 4.32 c0 1.36 0.04 2.36 0.48 3.4 z M88.11200000000001 16 l-2.12 0 l0 8.6 l1.72 0 c1.64 0 2.64 -0.72 2.64 -2.96 l0 -2.76 c0 -2 -0.68 -2.88 -2.24 -2.88 z M106.4 16 l0 7.8 l6.04 0 l0 4 l-6.04 0 l0 8.2 l7.6 0 l0 4 l-12 0 l0 -28 l12 0 l0 4 l-7.6 0 z M125.44800000000001 16 l0 7.8 l6.04 0 l0 4 l-6.04 0 l0 8.2 l7.6 0 l0 4 l-12 0 l0 -28 l12 0 l0 4 l-7.6 0 z M138.816 16 l0 -4 l13.6 0 l0 4 l-4.6 0 l0 24 l-4.4 0 l0 -24 l-4.6 0 z M168.632 18.72 c0 -4.48 2.2 -7.04 6.48 -7.04 s6.48 2.56 6.48 7.04 l0 0.88 l-4.16 0 l0 -1.16 c0 -2 -0.8 -2.76 -2.2 -2.76 s-2.2 0.76 -2.2 2.76 c0 2.04 0.88 3.56 3.76 6.08 c3.68 3.24 4.84 5.56 4.84 8.76 c0 4.48 -2.24 7.04 -6.56 7.04 s-6.56 -2.56 -6.56 -7.04 l0 -1.72 l4.16 0 l0 2 c0 2 0.88 2.72 2.28 2.72 s2.28 -0.72 2.28 -2.72 c0 -2.04 -0.88 -3.56 -3.76 -6.08 c-3.68 -3.24 -4.84 -5.56 -4.84 -8.76 z M188.48000000000002 40 l0 -28 l4.4 0 l0 28 l-4.4 0 z M209.80800000000002 40 l-5.4 -20.28 l-0.08 0 l0 20.28 l-3.96 0 l0 -28 l5.52 0 l4.44 16.76 l0.08 0 l0 -16.76 l3.92 0 l0 28 l-4.52 0 z M228.416 28.4 l0 -4 l6.16 0 l0 8.88 c0 4.48 -2.24 7.04 -6.56 7.04 s-6.56 -2.56 -6.56 -7.04 l0 -14.56 c0 -4.48 2.24 -7.04 6.56 -7.04 s6.56 2.56 6.56 7.04 l0 2.72 l-4.16 0 l0 -3 c0 -2 -0.88 -2.76 -2.28 -2.76 s-2.28 0.76 -2.28 2.76 l0 15.12 c0 2 0.88 2.72 2.28 2.72 s2.28 -0.72 2.28 -2.72 l0 -5.16 l-2 0 z M246.144 28 l0 12 l-4.4 0 l0 -28 l4.4 0 l0 12 l5 0 l0 -12 l4.48 0 l0 28 l-4.48 0 l0 -12 l-5 0 z"/></g>
			</g>
		</svg>
	